<?xml version="1.0" standalone="no"?>
<!DOCTYPE svg PUBLIC "-//W3C//DTD SVG 20010904//EN"
 "http://www.w3.org/TR/2001/REC-SVG-20010904/DTD/svg10.dtd">
<svg version="1.0" xmlns="http://www.w3.org/2000/svg"
 width="256.000000pt" height="256.000000pt" viewBox="0 0 256.000000 256.000000"
 preserveAspectRatio="xMidYMid meet">
<metadata>
Created by potrace 1.14, written by Peter Selinger 2001-2017
</metadata>
<g transform="translate(0.000000,256.000000) scale(0.100000,-0.100000)"
fill="#000000" stroke="none">
<path d="M132 2539 c-51 -26 -109 -90 -123 -139 -6 -23 -9 -406 -7 -1142 l3
-1106 30 -43 c17 -24 50 -57 74 -74 l43 -30 1106 -3 c787 -2 1118 0 1145 8 49
14 115 74 138 125 18 38 19 98 19 1143 0 1217 4 1140 -63 1211 -18 18 -50 42
-72 52 -38 18 -90 19 -1145 19 -1105 0 -1105 0 -1148 -21z m1343 -449 c35 -17
45 -59 20 -80 -13 -11 -28 -11 -79 -2 -35 7 -96 12 -136 12 -40 0 -101 -5
-136 -12 -71 -13 -94 -4 -94 37 0 50 59 65 250 62 103 -2 154 -7 175 -17z
m-75 -280 c36 -6 100 -22 143 -36 87 -29 117 -57 97 -93 -14 -27 -34 -26 -122
3 -155 52 -323 52 -474 0 -90 -31 -111 -31 -126 1 -16 36 9 59 101 89 131 44
255 55 381 36z m11 -356 c81 -24 121 -48 188 -110 112 -103 166 -259 142 -406
-46 -281 -311 -454 -586 -382 -221 57 -373 289 -338 515 21 133 113 273 221
336 104 61 259 80 373 47z"/>
<path d="M1183 1346 c-158 -51 -254 -181 -254 -341 0 -144 76 -261 211 -324
45 -21 70 -26 140 -26 77 0 92 3 152 33 267 131 268 502 2 633 -76 38 -181 48
-251 25z"/>
</g>
</svg>
