<svg xmlns="http://www.w3.org/2000/svg" viewBox="0 0 48 48"><defs><style>.cls-1{fill:none;opacity:0.4;}</style></defs><g id="레이어_2" data-name="레이어 2"><g id="레이어_1-2" data-name="레이어 1"><rect class="cls-1" width="48" height="48"/><path id="Icon_awesome-angle-double-right" data-name="Icon awesome-angle-double-right" d="M24,25.7,10.43,39.3a2.39,2.39,0,0,1-3.38,0H7L4.78,37a2.4,2.4,0,0,1,0-3.38h0L14.42,24,4.78,14.37a2.4,2.4,0,0,1,0-3.38h0L7,8.7a2.39,2.39,0,0,1,3.38,0h0L24,22.3a2.39,2.39,0,0,1,0,3.38Zm19.19-3.4L29.62,8.7a2.38,2.38,0,0,0-3.37,0h0L24,11a2.39,2.39,0,0,0,0,3.38h0L33.61,24,24,33.63A2.39,2.39,0,0,0,24,37h0l2.26,2.26a2.39,2.39,0,0,0,3.38,0h0l13.6-13.6a2.38,2.38,0,0,0,0-3.36l0,0Z"/></g></g></svg>