<svg xmlns="http://www.w3.org/2000/svg" viewBox="0 0 48 48"><defs><style>.cls-1{fill:none;opacity:0.4;}.cls-2{isolation:isolate;}</style></defs><g id="레이어_2" data-name="레이어 2"><g id="레이어_1-2" data-name="레이어 1"><rect class="cls-1" width="48" height="48"/><path id="Icon_ionic-ios-mail-open" data-name="Icon ionic-ios-mail-open" class="cls-2" d="M41.63,19.88,27.5,5.47a4.9,4.9,0,0,0-6.93-.06l-.07.06S6.79,19.45,6.37,19.89a3.59,3.59,0,0,0-.94,2.33V41.14A2.87,2.87,0,0,0,8.29,44H39.71a2.87,2.87,0,0,0,2.86-2.86v-19A3.44,3.44,0,0,0,41.63,19.88ZM39.9,23.66l-7.24,7.56a.18.18,0,0,0,0,.25h0l6.72,7.16a1.16,1.16,0,0,1,0,1.64h0a1.16,1.16,0,0,1-1.64,0L24.26,25.88a.36.36,0,0,0-.5,0l0,0L10.28,40.26a1.16,1.16,0,0,1-1.65-1.64h0l6.73-7.16a.2.2,0,0,0,0-.25L8.09,23.65a2,2,0,0,1,.48-2.83,2,2,0,0,1,1-.37h29a2.12,2.12,0,0,1,1.7,2.45A2.09,2.09,0,0,1,39.9,23.66Z"/></g></g></svg>