<svg xmlns="http://www.w3.org/2000/svg" viewBox="0 0 48 48"><defs><style>.cls-1{fill:none;opacity:0.4;}</style></defs><g id="레이어_2" data-name="레이어 2"><g id="레이어_1-2" data-name="레이어 1"><rect class="cls-1" width="48" height="48"/><path id="Icon_ionic-ios-color-palette" data-name="Icon ionic-ios-color-palette" d="M42.14,33.57a4.87,4.87,0,0,0-2.57-.93,3.84,3.84,0,0,1-2.35-1,2.88,2.88,0,0,1-.51-4.05,2.74,2.74,0,0,1,.51-.51l3.15-2.81A10.13,10.13,0,0,0,41.63,10a9.38,9.38,0,0,0-1.26-1.26A20,20,0,0,0,27.06,4a25.19,25.19,0,0,0-16.54,6.26A18.25,18.25,0,0,0,8.27,36a17.71,17.71,0,0,0,2.25,2.25A24.38,24.38,0,0,0,26.45,44h.18a23.42,23.42,0,0,0,15.49-5.46A3.52,3.52,0,0,0,42.14,33.57ZM9.84,19.83a3.34,3.34,0,1,1,3.33,3.34h0a3.33,3.33,0,0,1-3.33-3.33ZM14,33a3.34,3.34,0,1,1,3.32-3.34h0A3.33,3.33,0,0,1,14,33h0Zm6.66-16.77A3.34,3.34,0,1,1,24,12.85h0a3.34,3.34,0,0,1-3.33,3.34ZM28.17,39a5,5,0,1,1,5-5h0a5,5,0,0,1-5,5Zm2.5-21.67A3.33,3.33,0,1,1,34,14a3.34,3.34,0,0,1-3.33,3.33Z"/></g></g></svg>