<svg xmlns="http://www.w3.org/2000/svg" viewBox="0 0 48 48"><defs><style>.cls-1{fill:none;opacity:0.4;}</style></defs><g id="레이어_2" data-name="레이어 2"><g id="레이어_1-2" data-name="레이어 1"><rect class="cls-1" width="48" height="48"/><path id="Icon_awesome-angle-double-right-2" data-name="Icon awesome-angle-double-right-2" d="M24,25.7,37.57,39.3a2.39,2.39,0,0,0,3.38,0h0L43.22,37a2.4,2.4,0,0,0,0-3.38h0L33.58,24l9.64-9.64a2.4,2.4,0,0,0,0-3.38h0L41,8.7a2.39,2.39,0,0,0-3.38,0h0L24,22.3a2.39,2.39,0,0,0,0,3.38ZM4.78,22.3,18.38,8.7a2.38,2.38,0,0,1,3.37,0h0L24,11a2.39,2.39,0,0,1,0,3.38h0L14.38,24,24,33.63A2.39,2.39,0,0,1,24,37h0l-2.25,2.26a2.39,2.39,0,0,1-3.38,0h0L4.78,25.68a2.38,2.38,0,0,1,0-3.36Z"/></g></g></svg>