<svg xmlns="http://www.w3.org/2000/svg" viewBox="0 0 48 48"><defs><style>.cls-1{fill:none;opacity:0.4;}</style></defs><g id="레이어_2" data-name="레이어 2"><g id="레이어_1-2" data-name="레이어 1"><rect class="cls-1" width="48" height="48"/><path id="Icon_awesome-save" data-name="Icon awesome-save" d="M42.75,12.74,35.26,5.26a4.29,4.29,0,0,0-3-1.26H8.29A4.29,4.29,0,0,0,4,8.29V39.71A4.29,4.29,0,0,0,8.29,44H39.72A4.29,4.29,0,0,0,44,39.71V15.78a4.29,4.29,0,0,0-1.26-3ZM24,38.28a5.71,5.71,0,1,1,5.71-5.71h0A5.7,5.7,0,0,1,24,38.28ZM32.57,11.1v9a1.07,1.07,0,0,1-1.07,1.07H10.79a1.07,1.07,0,0,1-1.07-1.07h0V10.79a1.07,1.07,0,0,1,1.07-1.08h20.4A1.09,1.09,0,0,1,32,10l.31.31A1.07,1.07,0,0,1,32.57,11.1Z"/></g></g></svg>