<svg xmlns="http://www.w3.org/2000/svg" viewBox="0 0 48 48"><defs><style>.cls-1{fill:none;opacity:0.4;}</style></defs><g id="레이어_2" data-name="레이어 2"><g id="레이어_1-2" data-name="레이어 1"><rect class="cls-1" width="48" height="48"/><path id="Icon_awesome-file-video" data-name="Icon awesome-file-video" d="M39,13.53V14H29V4h.47a1.9,1.9,0,0,1,1.33.55l7.65,7.65A1.88,1.88,0,0,1,39,13.53Zm-12.5,1.1V4H10.87A1.88,1.88,0,0,0,9,5.88H9V42.12A1.88,1.88,0,0,0,10.87,44H37.12A1.88,1.88,0,0,0,39,42.12V16.5H28.37A1.88,1.88,0,0,1,26.5,14.63ZM34,25.88v8.74a1.88,1.88,0,0,1-1.88,1.88A1.9,1.9,0,0,1,30.8,36l-4.3-4.3v3a1.88,1.88,0,0,1-1.88,1.88H15.87A1.88,1.88,0,0,1,14,34.63V25.88A1.88,1.88,0,0,1,15.87,24h8.75a1.88,1.88,0,0,1,1.88,1.88h0v3l4.3-4.3a1.88,1.88,0,0,1,2.65,0A1.9,1.9,0,0,1,34,25.88Z"/></g></g></svg>